<?xml version="1.0" encoding="UTF-8" standalone="no"?>
<svg width="563px" height="500px" viewBox="0 0 563 500" version="1.1" xmlns="http://www.w3.org/2000/svg" xmlns:xlink="http://www.w3.org/1999/xlink" xmlns:sketch="http://www.bohemiancoding.com/sketch/ns">
    <!-- Generator: Sketch 3.3.2 (12043) - http://www.bohemiancoding.com/sketch -->
    <title>logo</title>
    <desc>Created with Sketch.</desc>
    <defs></defs>
    <g id="Page-1" stroke="none" stroke-width="1" fill="none" fill-rule="evenodd" sketch:type="MSPage">
        <g id="master" sketch:type="MSLayerGroup" transform="translate(-286.000000, -50.000000)">
            <g id="canvas-base" transform="translate(267.000000, 0.000000)" sketch:type="MSShapeGroup">
                <g id="logo" transform="translate(1.000000, 0.000000)">
                    <g id="fill-version" transform="translate(30.000000, 62.000000)">
                        <g id="react" stroke="#39AEC6" stroke-width="24" opacity="0.328358209">
                            <path d="M419.030932,323.63759 C426.42859,321.7039 433.54607,319.609321 440.347,317.356 C501.389,297.131 538.43,265.619 538.43,237.628 C538.43,210.768 503.48,181.104 446.636,161.535 C437.582347,158.418159 427.961838,155.543521 417.849444,152.932907 L417.849444,152.932907 C420.058672,145.002347 421.948222,137.255664 423.498,129.733 C436.473,66.751 427.679,18.92 403.431,4.937 C380.163,-8.481 337.006,6.976 291.656,46.442 C284.427999,52.7322944 277.126502,59.6354911 269.807992,67.0974289 C264.035125,61.216663 258.261861,55.7053355 252.513,50.601 C204.428,7.905 158.597,-8.363 134.373,5.661 C111.127,19.118 102.965,64.228 114.509,123.227 C116.358555,132.679979 118.707623,142.506625 121.537191,152.629745 C110.395294,155.452872 99.8590358,158.589913 90.043,162.012 C33.998,181.552 0.628,210.986 0.628,237.628 C0.628,265.084 36.193,297.005 95.239,317.187 C103.436792,319.989113 112.110439,322.530177 121.195202,324.815427 C118.227705,335.451691 115.795012,345.742469 113.926,355.586 C102.854,413.898 111.681,457.509 134.76,470.819 C158.545,484.535 203.964,469.674 250.945,428.606 C257.473112,422.899726 264.012787,416.649996 270.53616,409.915633 C278.274333,417.804793 285.980247,425.05725 293.58,431.597 C338.57,470.312 380.762,484.444 403.819,471.096 C427.581,457.34 437.389,410.569 425.272,349.356 C423.625092,341.035802 421.533176,332.446298 419.030932,323.63759 Z M327.45491,138.058127 C360.154495,140.843073 390.766097,145.941075 417.849444,152.932907 L417.849444,152.932907 C410.407271,179.648383 399.337391,208.450492 385.407887,237.804724 C377.215014,220.905129 368.096252,203.806081 358.236,186.774 C348.413364,169.806765 338.092721,153.476872 327.454905,138.058126 Z M153.938183,238.208941 C139.852995,268.201697 128.778069,297.636501 121.195202,324.815427 C148.383797,331.654652 179.254606,336.20263 212.072196,338.599642 C201.247718,323.091091 190.754299,306.64002 180.821,289.482 C170.90943,272.361001 161.926169,255.179356 153.938185,238.208936 Z M419.030932,323.63759 C391.779118,330.761001 360.725091,335.701032 327.687183,338.350337 C309.273357,365.471731 289.977156,389.845843 270.53616,409.915633 C250.851419,389.846807 230.957922,365.657767 212.072201,338.599643 C230.70288,339.960436 249.960989,340.628 269.529,340.628 C289.335818,340.628 308.834504,339.86213 327.687183,338.350337 C338.23449,322.815382 348.492303,306.379066 358.322,289.334 C368.218887,272.172312 377.298042,254.894943 385.407887,237.804724 C399.811142,267.514616 411.3528,296.608082 419.030932,323.63759 Z M121.537191,152.629745 C148.578502,145.778033 179.187206,140.775362 211.725257,138.034394 C230.484812,111.07461 250.207417,87.082134 269.807992,67.0974289 C289.34884,87.0035112 308.885124,111.142571 327.454905,138.058126 C308.740198,136.464239 289.341561,135.628 269.529,135.628 C249.82999,135.628 230.457885,136.456379 211.725257,138.034394 C201.014231,153.427474 190.617151,169.787898 180.736,186.922 C170.892779,203.990478 161.930829,221.18954 153.938183,238.208941 C139.979588,208.553986 129.060146,179.544027 121.537191,152.629745 Z" id="Electrons"></path>
                        </g>
                        <path d="M270,135.870774 C249.94909,135.870774 230.23687,136.729014 211.192963,138.362453 C200.642526,153.564398 190.399982,169.703801 180.658848,186.595109 C170.743318,203.788974 161.722054,221.115348 153.685044,238.2571 C161.682456,255.253534 170.67838,272.462292 180.605536,289.610213 C190.553263,306.793156 201.06274,323.267096 211.903908,338.795432 C230.733203,340.187846 250.208084,340.870774 270,340.870774 C289.46075,340.870774 308.62404,340.131433 327.1694,338.67167 C337.871674,322.945967 348.27832,306.289446 358.244848,289.007109 C368.069542,271.970607 377.088391,254.820105 385.153109,237.851857 C376.970382,220.978651 367.865019,203.907057 358.020536,186.902213 C348.210628,169.956964 337.904001,153.647405 327.28079,138.24628 C308.765537,136.687914 289.585003,135.870774 270,135.870774 Z" id="Hex" stroke="#39AEC6" stroke-width="24" fill="#39AEC6"></path>
                        <g id="uikit" transform="translate(195.000000, 153.000000)" fill="#FFFFFF">
                            <path d="M101.65525,16.5905755 L73.1714167,0 L43.4459167,18.5072662 L72.3270833,34.5004317 L101.65525,16.5905755 L101.65525,16.5905755 Z M85.86125,41.6693525 L119.2,60.9856115 L119.2,112.014388 L74.23925,137.628345 L29.8,112.014388 L29.8,72.1870504 L0,57.3513669 L0,129.438849 L73.1714167,173 L149,129.762446 L149,43.262446 L115.276333,23.7346043 L85.86125,41.6693525 Z"></path>
                        </g>
                    </g>
                </g>
            </g>
        </g>
    </g>
</svg>